:version 1.10
:name ASF
:units
  mass 1
  length 1
  angle deg
:documentation
  ASF file generated by Kaydara
:root
  axis xyz
  order  tx ty tz rx ry rz
  position 0 0 0
  orientation 0 0 0
:bonedata
  begin
    id 1
    name LeftUpLegDummy
    direction 1 -2.30186e-007 -8.31532e-007
    length 2.93387
    axis 0 0 0 xyz
  end
  begin
    id 2
    name LeftUpLeg
    direction -1.82929e-007 -1 -1.48925e-009
    length 17.3336
    axis -3.48766 0.00143442 -0.000521554 xyz
    dof rx ry rz
  end
  begin
    id 3
    name LeftLeg
    direction -1.82929e-007 -1 -5.23717e-011
    length 14.9995
    axis 3.68178 -0.00654042 -0.000282425 xyz
    dof rx ry rz
  end
  begin
    id 4
    name LeftFoot
    direction 8.31532e-007 -4.54534e-011 1
    length 6.74421
    axis 1.87234e-006 4.66016e-005 -5.96866e-006 xyz
    dof rx ry rz
  end
  begin
    id 5
    name LeftToes
    direction 0.00818058 -0.00485161 0.999955
    length 3.85048
    axis 1.06247e-005 4.65869e-005 -5.96999e-006 xyz
    dof rx ry rz
  end
  begin
    id 6
    name SpineDummy
    direction -5.8607e-008 0.943407 -0.331637
    length 5.93572
    axis 0 0 0 xyz
  end
  begin
    id 7
    name Spine
    direction -1.04988e-007 0.999988 0.00495137
    length 10.1015
    axis -0.001389 0.000121417 6.61666e-006 xyz
    dof rx ry rz
  end
  begin
    id 8
    name Spine1
    direction 0 0 0
    length 0
    axis -0.001389 0.00012144 6.56766e-006 xyz
    dof rx ry rz
  end
  begin
    id 9
    name RightShoulderDummy
    direction -0.98348 0.17941 -0.0240696
    length 3.59882
    axis -0.001389 0.00012144 6.56766e-006 xyz
  end
  begin
    id 10
    name RightShoulder
    direction -0.978693 0.204882 0.0135597
    length 2.70001
    axis 0.215806 0.000203631 -0.00679732 xyz
    dof rx ry rz
  end
  begin
    id 11
    name RightArm
    direction -1 3.85509e-006 8.31394e-007
    length 10.2459
    axis -23.2009 -0.134239 -0.964098 xyz
    dof rx ry rz
  end
  begin
    id 12
    name RightForeArm
    direction -1 3.85569e-006 8.3129e-007
    length 8.16799
    axis -9.92322 0.0658061 0.17887 xyz
    dof rx ry rz
  end
  begin
    id 13
    name RightHand
    direction -0.992843 -0.0414604 0.112003
    length 5.28593
    axis -0.00960638 0.00330669 -0.185225 xyz
    dof rx ry rz
  end
  begin
    id 14
    name LeftShoulder1Dummy
    direction 0.983523 0.179172 -0.0240748
    length 3.59866
    axis -0.001389 0.00012144 6.56766e-006 xyz
  end
  begin
    id 15
    name LeftShoulder1
    direction 0.978627 0.205195 0.0135605
    length 2.70019
    axis -0.001389 0.00012144 6.57583e-006 xyz
    dof rx ry rz
  end
  begin
    id 16
    name LeftArm
    direction 1 3.51895e-006 -8.60188e-007
    length 10.2459
    axis -23.1894 0.134785 0.967513 xyz
    dof rx ry rz
  end
  begin
    id 17
    name LeftForeArm
    direction 1 3.51921e-006 -7.32029e-007
    length 8.16799
    axis -9.91835 -0.0656957 -0.177789 xyz
    dof rx ry rz
  end
  begin
    id 18
    name LeftHand
    direction 0.992938 -0.0411636 0.11126
    length 5.32135
    axis -0.00960237 -0.00340661 0.185177 xyz
    dof rx ry rz
  end
  begin
    id 19
    name HEadDummy
    direction 1.01974e-006 0.999861 -0.016675
    length 2.99946
    axis -0.001389 0.00012144 6.56766e-006 xyz
  end
  begin
    id 20
    name HEad
    direction -0.0222689 0.980941 0.193023
    length 5.12695
    axis -0.001389 0.00012144 6.56766e-006 xyz
    dof rx ry rz
  end
  begin
    id 21
    name RightUpLegDummy
    direction -1 2.30186e-007 8.31532e-007
    length 2.93387
    axis 0 0 0 xyz
  end
  begin
    id 22
    name RightUpLeg
    direction -1.82966e-007 -1 1.56832e-007
    length 17.3336
    axis -3.4909 -0.000906625 0.00028951 xyz
    dof rx ry rz
  end
  begin
    id 23
    name RightLeg
    direction -1.82786e-007 -1 -1.80317e-007
    length 14.9995
    axis 3.68513 0.0193739 -0.131021 xyz
    dof rx ry rz
  end
  begin
    id 24
    name RightFoot
    direction 8.31721e-007 -4.63324e-011 1
    length 6.74421
    axis 4.81691e-005 -0.120479 -0.188785 xyz
    dof rx ry rz
  end
  begin
    id 25
    name RightToes
    direction 0.00124746 -0.014064 0.9999
    length 3.85082
    axis 0.000481921 0.542163 -0.142575 xyz
    dof rx ry rz
  end
:hierarchy
  begin
    root LeftUpLegDummy SpineDummy RightUpLegDummy
    LeftUpLegDummy LeftUpLeg
    LeftUpLeg LeftLeg
    LeftLeg LeftFoot
    LeftFoot LeftToes
    SpineDummy Spine
    Spine Spine1
    Spine1 RightShoulderDummy LeftShoulder1Dummy HEadDummy
    RightShoulderDummy RightShoulder
    RightShoulder RightArm
    RightArm RightForeArm
    RightForeArm RightHand
    LeftShoulder1Dummy LeftShoulder1
    LeftShoulder1 LeftArm
    LeftArm LeftForeArm
    LeftForeArm LeftHand
    HEadDummy HEad
    RightUpLegDummy RightUpLeg
    RightUpLeg RightLeg
    RightLeg RightFoot
    RightFoot RightToes
  end

:SAMPLES-PER-SECOND 30
:FULLY-SPECIFIED
:DEGREES
232
root  -8.95387 34.3906 1.00246 -157.922 71.6906 -164.722
LeftUpLeg  -12.3083 1.31439 2.08636
LeftLeg  13.8606 -0.0108543 -0.00356038
LeftFoot  -1.91557 -0.00195502 0.0035009
LeftToes  -8.2185 6.91067e-007 1.07128e-007
Spine  4.16327 3.36456 -2.22217
Spine1  7.77654 7.08432 -4.50438
RightShoulder  0.243411 13.9343 6.446
RightArm  -2.06551 -2.90438 80.0192
RightForeArm  37.5764 15.5464 2.80039
RightHand  -0.410862 -6.81603 7.25405
LeftShoulder1  0.0486608 -6.26346 -6.48972
LeftArm  24.5887 -2.77094 -77.5472
LeftForeArm  46.4459 -28.9532 -5.57186
LeftHand  -2.92521 14.0232 -23.8147
HEad  -18.7519 33.6813 -12.9845
RightUpLeg  -21.082 -11.3062 0.413239
RightLeg  18.6388 -1.80456 -0.482519
RightFoot  13.8467 0.0970781 -0.421892
RightToes  -39.5414 -0.21483 -0.312517
233
root  -9.0051 34.3827 1.08058 -156.85 70.5387 -164.163
LeftUpLeg  -13.316 1.33261 2.66174
LeftLeg  14.2352 -0.970025 -0.182366
LeftFoot  -1.91336 -0.00390612 0.0428619
LeftToes  -8.73655 6.91067e-007 1.07128e-007
Spine  4.16048 3.73795 -2.15208
Spine1  7.71542 7.86883 -4.39909
RightShoulder  0.282279 14.2591 6.18752
RightArm  -2.54156 -1.3493 81.7194
RightForeArm  44.1363 14.0853 2.51721
RightHand  -0.342414 -6.11202 6.76977
LeftShoulder1  0.0510661 -6.75203 -6.42083
LeftArm  27.0774 -3.50861 -77.3445
LeftForeArm  45.0333 -28.4448 -5.45689
LeftHand  -2.7906 13.8444 -23.0478
HEad  -18.802 32.4437 -13.2262
RightUpLeg  -22.6532 -10.2294 1.57836
RightLeg  17.0496 2.06004 0.4893
RightFoot  14.1756 -0.0221945 0.556019
RightToes  -39.9771 -0.2183 -0.314993
234
root  -9.0702 34.3731 1.15768 -156.847 69.4767 -164.575
LeftUpLeg  -14.1385 1.66194 2.86228
LeftLeg  14.4552 -2.19273 -0.418803
LeftFoot  -1.79395 -0.0059045 0.0815563
LeftToes  -9.08637 6.91067e-007 1.07128e-007
Spine  4.24121 3.98565 -2.14107
Spine1  7.86874 8.35216 -4.34536
RightShoulder  0.2875 14.222 6.23509
RightArm  -1.63732 -0.881857 81.9189
RightForeArm  46.3532 13.8725 2.47422
RightHand  -0.243589 -5.03795 5.89508
LeftShoulder1  0.0533144 -7.13148 -6.42434
LeftArm  24.6195 -3.46923 -76.9404
LeftForeArm  44.7493 -27.8858 -5.32981
LeftHand  -2.83052 13.8593 -23.3395
HEad  -18.884 31.3565 -12.7392
RightUpLeg  -24.3774 -10.4401 2.61144
RightLeg  16.329 6.31389 1.41427
RightFoot  12.84 -0.123813 1.47779
RightToes  -38.4083 -0.205895 -0.305955
235
root  -9.10325 34.3774 1.19391 -157.298 68.1741 -165.444
LeftUpLeg  -14.767 1.77206 2.91726
LeftLeg  14.4099 -3.54999 -0.673795
LeftFoot  -1.55813 -0.00709047 0.106655
LeftToes  -9.35215 6.91067e-007 1.07128e-007
Spine  4.35082 3.9621 -2.08056
Spine1  8.12117 8.26239 -4.17992
RightShoulder  0.275103 14.1888 6.42821
RightArm  -1.06279 -1.21037 80.9406
RightForeArm  43.855 14.1686 2.5332
RightHand  -0.175047 -4.41787 4.89851
LeftShoulder1  0.0548462 -6.86304 -6.66341
LeftArm  21.2327 -3.15527 -76.4876
LeftForeArm  43.2593 -27.0451 -5.14273
LeftHand  -2.72928 13.9945 -22.3274
HEad  -18.8593 30.6034 -12.0393
RightUpLeg  -25.8321 -10.686 3.25362
RightLeg  15.6816 9.05059 1.91661
RightFoot  12.4124 -0.179398 2.02704
RightToes  -38.0322 -0.202957 -0.303738
236
root  -9.11088 34.3892 1.16086 -157.773 66.4369 -166.305
LeftUpLeg  -15.2183 1.27314 2.99151
LeftLeg  14.1403 -4.69553 -0.867358
LeftFoot  -1.21856 -0.00650937 0.103755
LeftToes  -9.85426 6.91067e-007 1.07128e-007
Spine  4.44996 3.72057 -1.9165
Spine1  8.37248 7.71589 -3.81286
RightShoulder  0.256991 14.1223 6.55452
RightArm  -4.23749 -1.82506 79.8864
RightForeArm  41.3231 14.016 2.50797
RightHand  -0.095699 -4.11102 3.03108
LeftShoulder1  0.0557941 -6.63793 -7.0679
LeftArm  17.8921 -2.52857 -75.8987
LeftForeArm  39.4362 -25.3198 -4.76821
LeftHand  -2.23279 13.3205 -19.3094
HEad  -18.2211 29.663 -11.0192
RightUpLeg  -26.9632 -11.319 3.65081
RightLeg  15.2075 10.3841 2.10719
RightFoot  12.6115 -0.217422 2.3448
RightToes  -37.2928 -0.197226 -0.303283
237
root  -9.08551 34.3957 1.12825 -158.145 64.9889 -166.984
LeftUpLeg  -15.3971 1.51097 2.97175
LeftLeg  13.6162 -6.25488 -1.09479
LeftFoot  -0.850501 -0.00528504 0.0907515
LeftToes  -10.3384 6.91067e-007 1.07128e-007
Spine  4.55173 3.53961 -1.74237
Spine1  8.61763 7.2996 -3.43334
RightShoulder  0.239712 13.7247 6.72684
RightArm  -9.1511 -2.16558 79.0251
RightForeArm  39.8697 13.5314 2.41932
RightHand  -0.0382693 -5.05258 1.23577
LeftShoulder1  0.0565537 -6.59029 -7.57385
LeftArm  14.2091 -1.29471 -74.8378
LeftForeArm  33.2482 -24.3773 -4.57161
LeftHand  -1.61903 12.6691 -14.8694
HEad  -16.9608 28.1494 -9.5972
RightUpLeg  -28.086 -12.5643 4.15973
RightLeg  15.3867 10.8071 2.22694
RightFoot  12.9144 -0.238895 2.48795
RightToes  -37.273 -0.195292 -0.303955
238
root  -9.02649 34.396 1.09469 -158.985 63.7838 -168.069
LeftUpLeg  -15.4484 1.42307 2.75766
LeftLeg  13.2855 -7.36578 -1.24422
LeftFoot  -0.604809 -0.00369555 0.0723982
LeftToes  -10.5593 6.91067e-007 1.07128e-007
Spine  4.66875 3.33336 -1.61555
Spine1  8.87152 6.86531 -3.18404
RightShoulder  0.235739 13.527 6.92677
RightArm  -13.8951 -2.41016 77.981
RightForeArm  37.5789 13.0783 2.33765
RightHand  -0.00528789 -6.53689 0.462136
LeftShoulder1  0.0569599 -6.51132 -8.1024
LeftArm  9.20042 0.511114 -73.5956
LeftForeArm  26.7358 -24.6032 -4.62349
LeftHand  -1.17527 12.0592 -11.4558
HEad  -14.9732 25.5801 -7.44756
RightUpLeg  -29.1402 -14.2135 4.52238
RightLeg  16.1112 10.0375 2.20171
RightFoot  13.0381 -0.222855 2.32745
RightToes  -37.6309 -0.194702 -0.305232
239
root  -8.95116 34.3937 1.04689 -159.962 63.0615 -169.138
LeftUpLeg  -15.1945 1.62741 2.39065
LeftLeg  12.8632 -8.33745 -1.34408
LeftFoot  -0.39402 -0.0017283 0.0489309
LeftToes  -10.6859 6.91067e-007 1.07128e-007
Spine  4.8435 3.20446 -1.53284
Spine1  9.24248 6.58845 -3.00809
RightShoulder  0.231967 13.5427 7.12818
RightArm  -17.8239 -3.07443 76.6101
RightForeArm  33.5085 13.1998 2.36386
RightHand  0.0479245 -7.9926 -0.315721
LeftShoulder1  0.0568478 -5.90354 -8.56569
LeftArm  4.79254 1.92881 -72.5032
LeftForeArm  23.8959 -25.0597 -4.72227
LeftHand  -1.0639 11.1099 -11.2693
HEad  -12.4073 20.308 -4.14668
RightUpLeg  -29.7256 -15.5342 4.6308
RightLeg  16.6015 8.24652 1.88555
RightFoot  12.9812 -0.172302 1.89184
RightToes  -37.3405 -0.195117 -0.30659
240
root  -8.87805 34.379 0.984284 -161.292 62.7545 -170.671
LeftUpLeg  -15.0698 2.44968 1.60854
LeftLeg  12.7219 -9.51786 -1.50846
LeftFoot  -0.323163 -0.000857851 0.0436967
LeftToes  -10.5969 6.91067e-007 1.07128e-007
Spine  4.89628 3.17413 -1.58772
Spine1  9.38657 6.51167 -3.07922
RightShoulder  0.211843 13.429 7.30545
RightArm  -20.5562 -4.34709 75.3408
RightForeArm  30.7141 13.5075 2.42301
RightHand  -0.0306231 -9.09936 0.754302
LeftShoulder1  0.0560521 -5.45172 -8.86605
LeftArm  2.36522 3.67469 -71.0522
LeftForeArm  21.2851 -26.0399 -4.93562
LeftHand  -0.97742 10.3609 -11.112
HEad  -9.11121 11.3262 -0.12032
RightUpLeg  -30.0648 -16.9117 4.46673
RightLeg  16.7348 6.15004 1.42329
RightFoot  12.9343 -0.114782 1.39003
RightToes  -37.3329 -0.196193 -0.307507
241
root  -8.82614 34.3607 0.927063 -162.487 63.0014 -171.96
LeftUpLeg  -14.8346 3.11328 0.884485
LeftLeg  12.6098 -10.0765 -1.57589
LeftFoot  -0.312408 -0.000267967 0.0444425
LeftToes  -10.6364 6.91067e-007 1.07128e-007
Spine  4.87982 3.26695 -1.72056
Spine1  9.39192 6.68107 -3.28822
RightShoulder  0.186706 13.0867 7.72565
RightArm  -21.4778 -5.96622 74.0716
RightForeArm  27.7072 13.8742 2.49294
RightHand  -0.110518 -9.90086 1.6448
LeftShoulder1  0.0544078 -5.01923 -9.18511
LeftArm  1.42616 5.81655 -69.2266
LeftForeArm  17.5643 -27.4407 -5.24619
LeftHand  -0.885801 9.76221 -10.7071
HEad  -5.10582 -1.09633 3.66234
RightUpLeg  -30.081 -17.9941 4.26559
RightLeg  16.5438 3.98444 0.909151
RightFoot  13.3639 -0.062409 0.910209
RightToes  -37.2134 -0.19759 -0.307461
242
root  -8.70191 34.3636 0.841861 -163.175 63.1135 -172.795
LeftUpLeg  -14.5263 3.77737 0.414833
LeftLeg  12.3821 -10.7146 -1.63105
LeftFoot  -0.309716 0.000314421 0.0473562
LeftToes  -10.5138 6.91067e-007 1.07128e-007
Spine  4.78954 3.16578 -1.77149
Spine1  9.27094 6.44595 -3.33485
RightShoulder  0.150037 12.2863 8.08406
RightArm  -21.9359 -8.14726 73.3052
RightForeArm  22.8334 14.9974 2.70514
RightHand  -0.240596 -11.0471 2.85591
LeftShoulder1  0.0502336 -4.30802 -9.62893
LeftArm  0.370528 8.47526 -67.4282
LeftForeArm  13.6706 -28.8016 -5.55474
LeftHand  -0.826282 8.56644 -11.3595
HEad  -2.54359 -14.3405 6.07946
RightUpLeg  -29.626 -19.7599 4.40109
RightLeg  15.6674 2.43592 0.5173
RightFoot  14.0533 -0.0226769 0.561501
RightToes  -37.5181 -0.198966 -0.305926
243
root  -8.57345 34.37 0.756931 -163.648 63.6404 -173.537
LeftUpLeg  -14.2457 4.58505 -0.115863
LeftLeg  12.0118 -10.9862 -1.5997
LeftFoot  -0.309062 0.00102343 0.050785
LeftToes  -9.91973 6.91067e-007 1.07128e-007
Spine  4.67766 2.93769 -1.80179
Spine1  9.10522 5.96955 -3.37141
RightShoulder  0.112945 11.0123 8.33879
RightArm  -23.3875 -9.91722 73.1788
RightForeArm  18.3303 15.8851 2.87338
RightHand  -0.412101 -11.6205 4.41573
LeftShoulder1  0.045096 -3.44661 -10.2585
LeftArm  -0.595977 11.7271 -65.6385
LeftForeArm  10.4276 -30.4539 -5.94053
LeftHand  -0.798044 7.42974 -12.603
HEad  -3.06414 -25.3867 7.75611
RightUpLeg  -28.7593 -20.2256 4
RightLeg  14.3234 0.109944 0.0213726
RightFoot  14.7234 0.0510368 -0.0174768
RightToes  -37.8037 -0.20118 -0.302382
244
root  -8.44457 34.376 0.657938 -163.824 64.8962 -174.128
LeftUpLeg  -14.0801 5.16492 -0.662278
LeftLeg  11.7242 -10.3557 -1.4563
LeftFoot  -0.466427 0.000257995 0.0800425
LeftToes  -9.28664 6.91067e-007 1.07128e-007
Spine  4.38033 2.67504 -1.7892
Spine1  8.57012 5.43505 -3.36094
RightShoulder  0.0790937 10.0061 8.32061
RightArm  -25.4623 -11.5137 73.5218
RightForeArm  16.375 15.9517 2.88567
RightHand  -0.702391 -12.28 6.88868
LeftShoulder1  0.0395551 -3.23925 -10.832
LeftArm  -1.50709 16.1885 -63.9701
LeftForeArm  6.30297 -32.2796 -6.38135
LeftHand  -0.773153 6.67945 -13.5467
HEad  -4.44199 -33.9765 9.17453
RightUpLeg  -27.6927 -19.4083 3.12453
RightLeg  12.8882 -2.74041 -0.442639
RightFoot  15.1638 0.152725 -0.769756
RightToes  -36.2712 -0.189402 -0.293105
245
root  -8.28411 34.3885 0.562051 -163.723 66.5807 -174.522
LeftUpLeg  -13.8469 5.9118 -1.15394
LeftLeg  11.2164 -9.52428 -1.25504
LeftFoot  -0.587291 0.000497346 0.0970311
LeftToes  -8.88285 6.91067e-007 1.07128e-007
Spine  3.94943 2.30653 -1.76139
Spine1  7.76127 4.70145 -3.35867
RightShoulder  0.0549933 9.59068 8.18924
RightArm  -25.7664 -13.3271 73.9551
RightForeArm  14.4567 15.9149 2.87804
RightHand  -0.830515 -12.683 7.82867
LeftShoulder1  0.0297502 -2.83285 -10.5256
LeftArm  -1.43805 20.4702 -63.2929
LeftForeArm  2.8485 -32.89 -6.5299
LeftHand  -0.997359 7.38987 -15.7075
HEad  -5.88269 -40.1469 10.4412
RightUpLeg  -26.6057 -18.8137 2.40183
RightLeg  11.4689 -5.1326 -0.698835
RightFoot  15.8117 0.254384 -1.45411
RightToes  -35.0664 -0.180319 -0.285591
